<svg width="53" height="53" viewBox="0 0 53 53" fill="none" xmlns="http://www.w3.org/2000/svg">
<g clip-path="url(#clip0_65_243)">
<path d="M40.5781 0H12.4219C5.56146 0 0 5.56146 0 12.4219V40.5781C0 47.4385 5.56146 53 12.4219 53H40.5781C47.4385 53 53 47.4385 53 40.5781V12.4219C53 5.56146 47.4385 0 40.5781 0Z" fill="#F03C2E"/>
<mask id="mask0_65_243" style="mask-type:luminance" maskUnits="userSpaceOnUse" x="5" y="5" width="43" height="43">
<path d="M5.79688 5.79688H47.2031V47.2031H5.79688V5.79688Z" fill="white"/>
</mask>
<g mask="url(#mask0_65_243)">
<path d="M46.422 24.6562L28.3442 6.57844C27.9715 6.2053 27.4964 5.95118 26.9791 5.84824C26.4619 5.7453 25.9257 5.79819 25.4385 6.0002C25.1152 6.1344 24.8213 6.33087 24.5738 6.57844L20.8213 10.3309L25.583 15.0926C26.6907 14.7044 27.9587 14.9696 28.8411 15.8522C29.2612 16.273 29.5545 16.8035 29.6874 17.3831C29.8203 17.9626 29.7876 18.5679 29.5928 19.1297L34.1825 23.7194C35.2928 23.3364 36.5737 23.5834 37.46 24.4724C37.904 24.9161 38.2063 25.4816 38.3287 26.0973C38.4511 26.713 38.3881 27.3512 38.1476 27.931C37.8252 28.7084 37.2073 29.326 36.4297 29.6479C35.6521 29.9699 34.7785 29.9699 34.0009 29.6479C33.6158 29.4883 33.266 29.2546 32.9714 28.9598C32.0397 28.0281 31.8095 26.6565 32.2805 25.5088L28.0001 21.2284V32.4923C28.3109 32.646 28.5948 32.8488 28.8411 33.0927C29.4362 33.6878 29.7705 34.4949 29.7705 35.3364C29.7705 36.178 29.4362 36.9851 28.8411 37.5801C28.246 38.1752 27.4389 38.5095 26.5974 38.5095C25.7558 38.5095 24.9487 38.1752 24.3537 37.5801C23.9096 37.1365 23.6071 36.5711 23.4845 35.9555C23.3619 35.3399 23.4248 34.7018 23.6651 34.1219C23.8247 33.7369 24.0587 33.3871 24.3537 33.0927C24.6603 32.7874 25.0007 32.5557 25.3928 32.4004V21.0317C25.0037 20.8727 24.6503 20.6374 24.3537 20.3396C23.9082 19.8946 23.6053 19.3269 23.4836 18.7091C23.3619 18.0912 23.427 17.4511 23.6705 16.8704L18.9736 12.1764L6.57756 24.5593C6.20439 24.9322 5.95022 25.4075 5.84722 25.9249C5.74421 26.4423 5.79701 26.9786 5.99891 27.466C6.13319 27.7896 6.3298 28.0836 6.57756 28.3312L24.6566 46.4075C24.9041 46.6551 25.198 46.8516 25.5213 46.9858C26.1748 47.256 26.9088 47.256 27.5623 46.9858C27.8856 46.8516 28.1795 46.6551 28.427 46.4075L46.422 28.4411C46.6698 28.1936 46.8663 27.8996 47.0005 27.576C47.1346 27.2524 47.2037 26.9056 47.2037 26.5553C47.2037 26.205 47.1346 25.8581 47.0005 25.5345C46.8664 25.2109 46.6698 24.9169 46.422 24.6692" fill="white"/>
</g>
</g>
<defs>
<clipPath id="clip0_65_243">
<rect width="53" height="53" fill="white"/>
</clipPath>
</defs>
</svg>
